Patient4_TMGait_0pt4_02_left_37_EMG.mot
version=1
nRows=13
nColumns=33
inDegrees=no
endheader
time	1LAddLong	2LGlutMax	3LGlutMed	4LIliopsoas	5LSemiMemb	6LBicFemLong	7LRecFem	8LVastMed	9LVastLat	10LGasMed	11LTibAnt	12lTibPost	13LPeroneusLong	14LSol	15LExtDigLong	16LFlexDigLong	17RAddLong	18RGlutMax	19RGlutMed	20RIliopsoas	21RSemiMemb	22RBicFemLong	23RRecFem	24RVastMed	25RVastLat	26RGasMed	27RTibAnt	28RTibPost	29RPeroneusLong	30RSol	31RExtDigLong	32RFlexDigLong
49.915	0.008087	0.013885	0.036011	0.009613	0.009918	-0.21988	-0.37277	0.055542	0.11231	-0.33875	0.001068	-0.006104	0.12909	-0.44739	-0.00824	-0.10498	-0.011444	-0.0914	-0.13596	0.010681	-0.061798	-0.042419	0.41824	-0.10025	-0.050049	0.005341	0.022278	-0.089569	1.2024	-0.59692	0.000153	0.000763
49.916	0.010223	-0.002441	-0.011902	0.008087	-0.036316	-0.19272	-0.33981	0.013123	0.078888	-0.5127	-0.026703	-0.015259	0.19318	-0.52261	0.001068	-0.11002	-0.011292	-0.10773	-0.089569	0.15503	-0.071106	-0.048828	0.4422	-0.11566	-0.032043	0.016937	0.065918	0.39978	1.0413	-0.72189	-0.001221	0.00351
49.917	0.025177	-0.014038	-0.007629	-0.003052	-0.021667	-0.12924	-0.30258	0.001831	0.10773	-0.26901	-0.031586	-0.005341	0.053864	-0.64758	0.021362	-0.067444	0.010071	-0.16968	-0.023956	0.18143	-0.084076	-0.038147	0.37598	-0.16083	-0.041046	0.012207	0.041962	0.2948	0.41885	-0.076141	0.010834	0.004883
49.918	0.018158	0.012054	-0.054474	-0.005646	-0.046844	-0.1059	-0.36499	-0.010834	0.30716	0.095215	0.002289	-0.013885	-0.30197	-0.55359	0.031433	-0.037231	0.022125	-0.19302	-0.047455	0.15518	-0.098114	-0.05249	0.41626	-0.11932	-0.03891	0.011902	0.017395	-0.11597	-0.050964	0.41733	-0.003662	0.002899
49.919	0.020447	0.027618	-0.097198	0.001831	-0.02121	-0.10086	-0.32501	-0.014343	0.29068	0.31067	0.006256	-0.025482	0.18936	-0.077667	0.052948	-0.021973	-0.002136	-0.22232	-0.11169	0.092621	-0.10391	-0.055847	0.38086	-0.15915	-0.052032	0.013428	-0.04837	-0.19577	-0.029449	0.46631	-0.003967	-0.001068
49.92	0.006714	0.033569	0.00885	0.022736	0.001068	-0.029297	-0.21194	-0.011749	0.18784	0.2713	0.017242	-0.041351	0.086517	0.30548	0.066986	-0.034943	-0.02243	-0.22797	-0.20432	0.046844	-0.092163	-0.03418	0.40771	-0.12405	-0.036469	-0.016937	0.076904	0.22949	-0.85831	0.52307	0.000763	-0.009003
49.921	-0.003967	0.042419	0.07782	0.027161	-0.002899	0.11322	-0.15991	-0.00473	0.18814	0.22339	-0.00824	-0.041504	-0.047455	0.22476	-0.03418	-0.031281	-0.028229	-0.22156	-0.17059	-0.011749	-0.07782	-0.033569	0.39429	-0.072174	-0.063477	-0.014191	0.04303	0.112	-1.1128	0.551	-0.003204	-0.005798
49.922	-0.002594	0.081329	0.049744	0.026855	-0.054169	0.26291	-0.16205	-0.001221	0.20203	0.22339	-0.047302	-0.038605	0.29022	0.058899	-0.071106	-0.013733	-0.050354	-0.2124	-0.067139	-0.046234	-0.070801	-0.023346	0.37384	-0.10284	-0.055542	-0.014648	-0.001831	0.22354	-1.0854	0.59769	-0.007782	-0.009308
49.923	-0.005493	0.09903	-0.096283	0.014801	-0.067444	0.35934	-0.19791	0.005646	0.13153	0.25391	-0.042572	-0.045471	0.13214	-0.20111	-0.085297	-0.011749	-0.056763	-0.23041	-0.11505	-0.037842	-0.062256	-0.016785	0.35049	-0.02243	-0.05127	-0.026245	0.032196	0.033875	-0.35523	-0.031738	-0.000305	-0.013733
49.924	-0.000916	0.041199	-0.25482	-0.011444	-0.085297	0.37186	-0.21774	0.005341	-0.071411	0.45197	-0.012665	-0.03006	0.16632	-0.1886	0.020294	-0.006561	-0.029297	-0.23193	-0.18723	-0.044098	-0.059052	-0.016174	0.35187	-0.008087	-0.054626	-0.019836	-0.040283	-0.11459	1.3075	-0.27115	-0.002899	-0.024414
49.925	-0.010071	-0.005035	-0.34515	-0.013428	-0.061951	0.45761	-0.32242	0.008087	-0.20691	0.34912	0.034485	-0.020905	0.13062	-0.080414	0.017395	-0.049438	-0.011902	-0.28702	-0.16129	-0.008392	-0.041962	-0.011902	0.30746	-0.059967	-0.043945	-0.003662	0.036316	-0.33432	1.4334	-0.02182	-0.00412	-0.022278
49.926	-0.006866	-0.013733	-0.053711	-0.002441	0.070496	0.30456	-0.28122	-0.005035	-0.11841	-0.056458	0.032654	-0.021515	0.78003	0.097656	0.076447	-0.018463	0.036774	-0.32379	-0.12482	0.021362	-0.045013	-0.021515	0.34103	-0.061646	-0.064545	0.028687	0.073853	0.10269	0.30029	0.20508	-0.005951	-0.02594
49.927	-0.006409	-0.017548	-0.001221	-0.016174	0.041809	0.13718	-0.16892	-0.01297	-0.081024	-0.13092	-0.032654	-0.022583	0.74173	0.29373	0.050659	-0.002289	0.015259	-0.34225	-0.040131	-0.10346	-0.056305	-0.032349	0.33463	-0.061035	-0.063629	0.052032	-0.014343	-0.17319	-0.65369	0.036774	-0.001221	-0.022736
